<svg width="26" height="26" viewBox="0 0 26 26" fill="none" xmlns="http://www.w3.org/2000/svg">
<path d="M16.4997 13H1.33301M1.33301 13L5.41634 9.5M1.33301 13L5.41634 16.5" stroke="black" stroke-width="1.2" stroke-linecap="round" stroke-linejoin="round"/>
<path d="M9.50195 7.16671C9.51595 4.62921 9.62912 3.25487 10.5251 2.35887C11.5506 1.33337 13.2003 1.33337 16.4996 1.33337H17.6663C20.9668 1.33337 22.6165 1.33337 23.642 2.35887C24.6663 3.38321 24.6663 5.03404 24.6663 8.33337V17.6667C24.6663 20.966 24.6663 22.6169 23.642 23.6412C22.7448 24.5384 21.3705 24.6504 18.833 24.6644M9.50195 18.8334C9.51595 21.3709 9.62912 22.7452 10.5251 23.6412C11.273 24.3902 12.3545 24.592 14.1663 24.6469" stroke="black" stroke-width="1.2" stroke-linecap="round"/>
</svg>
